# xmcd
#
# Track frame offsets:
#	150
#	14157
#	29890
#	40762
#	58117
#	68212
#	82793
#	99866
#	113767
#
# Disc length: 1731 seconds
#
# Revision: 0
# Processed by: cddbd v1.4PL0 Copyright (c) Steve Scherf et al.
# Submitted via: EasyCDDAExtractor 4.6.9.1
#
DISCID=7106c109
DTITLE=Alan Jackson - Super Hits
DYEAR=1999
DGENRE=Country
TTITLE0=Chasin' That Neon Rainbow
TTITLE1=Who Says You Can't Have It All
TTITLE2=She's Got The Rhythm(And I've Got The Blues)
TTITLE3=I Don't Even Know Your Name
TTITLE4=Blue Blooded Woman
TTITLE5=Working Class Hero
TTITLE6=That's All I Need To Know
TTITLE7=You Can't Give Up On Love
TTITLE8=Must've Had A Ball
EXTD=
EXTT0=
EXTT1=
EXTT2=
EXTT3=
EXTT4=
EXTT5=
EXTT6=
EXTT7=
EXTT8=
PLAYORDER=
